inDegrees=no
num_controls=7
num_derivatives=13
num_iterations=145
num_multipliers=7
num_parameters=0
num_slacks=7
num_states=26
objective=4.316005
objective_accelerations=0.474314
objective_balance=0.062506
objective_effort=0.594174
objective_height=3.092232
objective_ligament=0.092779
solver_duration=1495.490074
status=Solve_Succeeded
success=true
DataType=double
version=3
OpenSimVersion=4.4-2022-07-23-0e9fedc
endheader
time	/jointset/ground_pelvis/pelvis_tilt/value	/jointset/ground_pelvis/pelvis_tx/value	/jointset/ground_pelvis/pelvis_ty/value	/jointset/hip_l/hip_flexion_l/value	/jointset/hip_l/hip_adduction_l/value	/jointset/hip_l/hip_rotation_l/value	/jointset/back/lumbar_extension/value	/jointset/patellofemoral_l/patellar_flexion_l/value	/jointset/knee_l/knee_flexion_l/value	/jointset/knee_l/knee_adduction_l/value	/jointset/knee_l/knee_rotation_l/value	/jointset/ankle_l/ankle_angle_l/value	/jointset/subtalar_l/subtalar_angle_l/value	/jointset/ground_pelvis/pelvis_tilt/speed	/jointset/ground_pelvis/pelvis_tx/speed	/jointset/ground_pelvis/pelvis_ty/speed	/jointset/hip_l/hip_flexion_l/speed	/jointset/hip_l/hip_adduction_l/speed	/jointset/hip_l/hip_rotation_l/speed	/jointset/back/lumbar_extension/speed	/jointset/patellofemoral_l/patellar_flexion_l/speed	/jointset/knee_l/knee_flexion_l/speed	/jointset/knee_l/knee_adduction_l/speed	/jointset/knee_l/knee_rotation_l/speed	/jointset/ankle_l/ankle_angle_l/speed	/jointset/subtalar_l/subtalar_angle_l/speed	/forceset/tau_hip_flexion_l	/forceset/tau_hip_adduction_l	/forceset/tau_hip_rotation_l	/forceset/tau_knee_flexion_l	/forceset/tau_ankle_angle_l	/forceset/tau_subtalar_angle_l	/forceset/tau_lumbar_extension	lambda_cid13_p0	lambda_cid13_p1	lambda_cid13_p2	lambda_cid13_p3	lambda_cid13_p4	lambda_cid13_p5	lambda_cid14_p0	/jointset/ground_pelvis/pelvis_tilt/accel	/jointset/ground_pelvis/pelvis_tx/accel	/jointset/ground_pelvis/pelvis_ty/accel	/jointset/hip_l/hip_flexion_l/accel	/jointset/hip_l/hip_adduction_l/accel	/jointset/hip_l/hip_rotation_l/accel	/jointset/back/lumbar_extension/accel	/jointset/patellofemoral_l/patellar_flexion_l/accel	/jointset/knee_l/knee_flexion_l/accel	/jointset/knee_l/knee_adduction_l/accel	/jointset/knee_l/knee_rotation_l/accel	/jointset/ankle_l/ankle_angle_l/accel	/jointset/subtalar_l/subtalar_angle_l/accel	gamma_cid13_p0	gamma_cid13_p1	gamma_cid13_p2	gamma_cid13_p3	gamma_cid13_p4	gamma_cid13_p5	gamma_cid14_p0
0	-0.036822706069924	0.05667757846313436	0.9203415907147455	0.3085811930696054	-0.2956404654648541	-0.3016071749885747	-0.3879500408040475	0.2499276582270805	0.249927658227084	-0.1745329185176637	-0.1745328694145454	-0.0008036543073733089	0.0004376135052459503	0	0	0	0	0	0	0	0	0	0	0	0	0	0.09457870971289561	-0.07650671028390173	-0.02420350847678979	-0.280187183137422	0.2492748361484671	-0.01226254606119856	-0.01416161381641315	37.91224395537558	-3.306337132405103	2.350214220418603	-10.48591134937791	-608.0911749754429	-82.78829704108826	-23.19698928530324	-0.9766736595617227	-1.876098722462469	-1.130902891645064	11.47949122570802	-0.9096445574787431	4.571547963926542	-7.613982987567721	13.39164258283783	13.39164258283657	2.436917853355745	-0.09245315177020348	3.858654594918248	0.3353147788432762	5.684343194732394e-09	4.184907991496423e-07	5.325945107856736e-08	1.221735024804701e-08	1.810104002311576e-07	3.818793640887733e-08	3.602472406271567e-08
0.01	-0.03686707316121204	0.05658526783971723	0.9202862887828853	0.3091406818084466	-0.2956862881037823	-0.3013770185792766	-0.3883298097656874	0.2505844532991254	0.2505844532991032	-0.1744164218761755	-0.1745322286644451	-0.0006143484412415541	0.0004527524285366365	-0.008832223048318917	-0.01833062388228925	-0.01102506500996453	0.1113181675251592	-0.009133523132782326	0.04578580468641187	-0.07540878513002033	0.1307489927845124	0.1307489927844978	0.02313781675566236	0.0001038614892799997	0.03773249149414864	0.003017888148313717	0.08818759416538975	-0.08033884578332318	-0.02334816467532903	-0.274694033589658	0.2412577580417812	-0.004353745478471538	-0.008200242754841	35.49280348993029	-6.305229490428522	2.814300140599954	-10.30105663365293	-611.1411311962073	-88.52737079684056	-23.20438429505774	-0.8303305604311367	-1.791816657399672	-1.082973899277702	10.87103206490137	-0.9106353774337639	4.545289396015825	-7.422575196059533	12.82501717794909	12.82501717794767	2.22806645637272	0.05815642530281608	3.711253865332065	0.2834688916822076	-4.603656455245551e-08	3.826011140164611e-07	2.170614951808244e-07	5.656011831367e-08	-1.596500252851982e-08	-9.708187434731767e-08	1.736903455987773e-08
0.02	-0.03699852926957495	0.05631359649021972	0.9201218030822044	0.3107959627323363	-0.2958225318112924	-0.3006963655881144	-0.3894473163626966	0.2525304362093298	0.2525304362093262	-0.1740733764932189	-0.1745312791743861	-5.157617243490317e-05	0.0004977588450818256	-0.01741780341521659	-0.03587214521607499	-0.02183675376415991	0.2191584370095718	-0.01808421371580555	0.09009931637351527	-0.1475475270736586	0.2578375676366709	0.257837567636648	0.04530974829937871	6.174801959229234e-05	0.07469328053505421	0.00597349865090085	0.08179647861790358	-0.08417098128271179	-0.02249282087367233	-0.269200884041896	0.2332406799351147	0.003555055104293356	-0.002238871693278727	33.17864774951568	-9.319965927691353	3.277954167569703	-10.34285503779902	-612.6652260596931	-94.13017373701162	-23.22609364794271	-0.9273451232775071	-1.718278212761744	-1.088227640491229	10.78391161755868	-0.8730780475269114	4.277089364064913	-6.959974350291332	12.65955899636704	12.65955899636703	2.243740810966546	-0.1216481435636687	3.704314104269663	0.3228592496979772	-9.77574722996434e-08	3.467114288832798e-07	3.808635392830815e-07	1.00902886379293e-07	-2.129404052881972e-07	-2.323516851035127e-07	-1.286654942960202e-09
0.03	-0.03721471584330253	0.05587044287697816	0.9198499018829654	0.313512585341429	-0.296046939965268	-0.299580719565583	-0.3912695460189154	0.2557290352280739	0.2557290352280804	-0.1735130967355759	-0.1745318631419668	0.0008768367910742788	0.000572414175511856	-0.0257597518525311	-0.05262867879386609	-0.03253802351915846	0.3235791686339999	-0.02673056939123422	0.1328203971637066	-0.2163566562439661	0.3812529541263511	0.3812529541263469	0.06659304333816525	-0.0001301317639149928	0.1108484639539546	0.008979157659412451	0.07432108535080967	-0.07769886270005183	-0.02148648575019023	-0.2627580605763614	0.226535148314934	0.002339435305066712	0.004300762000867023	30.93382932056109	-8.47985144150757	3.236401481931039	-9.796679223407132	-614.0912190797029	-91.39557462902616	-23.26103420695313	-0.7786661068643507	-1.634835774726981	-1.060300642277081	10.18310047431902	-0.8505029262278646	4.238154233378207	-6.760120011533997	12.08813651005369	12.0881365100566	2.047752664205712	0.03935646644383036	3.549998049639017	0.292559213895803	-1.355904809186361e-07	3.039628141563957e-07	4.990381219772077e-07	1.342036964468361e-07	-3.695579995687908e-07	-3.310225690704144e-07	-1.576026441919937e-08
0.04	-0.03751253118198223	0.05526362495907092	0.9194711431863221	0.3172558045746516	-0.2963558293957325	-0.2980441553757715	-0.3937636145290635	0.2601429097186755	0.2601429097186803	-0.1727445582647638	-0.1745329030349508	0.002162577106560358	0.0006777540935206373	-0.03374355640608606	-0.06860500614920931	-0.04320825324507541	0.4244777618357956	-0.0349804690137397	0.1742829498291762	-0.2819152978596192	0.500892662007438	0.500892662007457	0.0869614909317903	-2.94370598993369e-05	0.146158750930407	0.01211041616664581	0.06684569208368582	-0.07122674411740364	-0.02048015062674462	-0.2563152371108432	0.2198296166947424	0.001123815505824718	0.0108403956950016	28.7853249051432	-7.651687119124822	3.191142515719535	-9.469057314052087	-614.1332087605787	-88.5315075537782	-23.30760247221692	-0.8557163465256298	-1.562236968272145	-1.082019634674911	10.07948393303222	-0.79378683694228	4.025383739120514	-6.30987683936047	11.90442327464838	11.9044232746493	2.060771321934242	-0.06313324605911784	3.535334815780092	0.3479791494423323	-1.73137141101996e-07	2.610727782007754e-07	6.162719322711663e-07	1.672768372773054e-07	-5.25343474086929e-07	-4.289388359901143e-07	-3.014764544128187e-08
0.05	-0.03788889969786026	0.0545009532425264	0.9189854661152459	0.321991367124384	-0.2967451674502238	-0.2961005911333052	-0.3968968954816541	0.2657349946982007	0.2657349946982199	-0.1717768972538866	-0.1745328095590557	0.003797271364231729	0.0008151405543230215	-0.04147936591756545	-0.08379758549574964	-0.05394963393558631	0.5220703980969602	-0.04281600708967269	0.214173451460183	-0.3442341214756948	0.6169105501270239	0.6169105501270389	0.1063949232393102	5.966387661816114e-05	0.1806331137344587	0.01539095596685732	0.05980128912821691	-0.06872697637330515	-0.01949788790789031	-0.2512653976169641	0.2131956336424929	0.003176104863977777	0.01692827050061877	26.7827035089655	-8.225193731879409	3.32008795646079	-9.225427549535111	-614.0991685613558	-88.68469941165776	-23.36377653582737	-0.7249027471279428	-1.477971945574952	-1.073674558617786	9.514481984318136	-0.7679023196281678	3.932336771235958	-6.116869445365478	11.3584101604087	11.35841016040754	1.858373422318727	0.04675822224233833	3.381439734823678	0.3215916760642702	-1.983635865024089e-07	1.350587675637561e-07	6.937562334212429e-07	1.784348168968457e-07	-6.265225234346961e-07	-5.123938533789104e-07	-5.045277820995472e-08
0.06	-0.0383411042075856	0.05359031502697051	0.918391679782789	0.3276859217390628	-0.2972107538908165	-0.2937658311953008	-0.4006381615349313	0.2724688462749041	0.272468846274907	-0.1706201530724943	-0.1745314597819478	0.005772299794364835	0.00098603246927828	-0.048910755175811	-0.09819830595148513	-0.06483010552122428	0.6162761748245023	-0.05023014623398059	0.2525220889370021	-0.4035123179971491	0.7292459814384104	0.7292459814384183	0.1247781250331456	0.0002218231625400196	0.2142255854227493	0.01881150699721768	0.05275688617277399	-0.06622720862920535	-0.01851562518923042	-0.2462155581230383	0.2065616505902533	0.005228394222138283	0.02301614530624819	24.86495883336942	-8.811569344608552	3.448810346296038	-9.185810666746864	-612.8521617518402	-88.72881919527211	-23.42729418363334	-0.7948322958788935	-1.40386519011115	-1.109837813700326	9.402112026307709	-0.7095070506172539	3.717010908283071	-5.701751420436223	11.16793191300845	11.16793191300882	1.850725219197333	-0.0485215761781423	3.358956592627867	0.3759813954721192	-2.230712860172239e-07	5.544800098046423e-09	7.695668710284192e-07	1.886700528864521e-07	-7.254023548805527e-07	-5.952399760506159e-07	-7.100707947322083e-08
